<?xml version="1.0" encoding="utf-8" ?><svg xmlns="http://www.w3.org/2000/svg" xmlns:xlink="http://www.w3.org/1999/xlink" width="280" height="280" viewBox="0 0 280 280"><path fill="#000000" d="M138.301 2.10179C150.942 0.718731 156.189 7.50669 164.498 15.6934L174.45 25.3366L211.135 60.9613L244.047 92.6056C270.628 117.923 270.204 114.231 270.026 150.964L270.007 186.251L270.026 224.471C270.033 237.473 271.593 252.149 263.836 263.322C258.28 271.204 249.848 276.585 240.358 278.304C234.222 279.409 226.45 279.029 220.055 279.003L193.938 278.957L172.756 278.97C163.075 279.025 153.672 280.077 145.326 274.229C140.367 270.754 136.716 265.717 134.956 259.922C132.479 251.904 133.272 237.16 133.296 228.206L133.335 198.914C133.333 194.364 133.559 187.44 132.824 183.216C127.185 176.795 119.062 181.375 113.555 176.325C109.561 172.662 110.434 160.633 117.479 159.847C124.521 158.891 132.199 159.468 139.247 159.259C146.773 159.036 153.946 163.312 154.349 171.372C154.676 177.924 154.479 185.023 154.473 191.645L154.411 231.839C154.349 253.912 152.64 258.399 177.957 258.155C196.593 257.937 215.31 258.656 233.919 257.67C237.428 257.484 239.783 257.034 242.745 254.964C250.48 249.556 249.337 239.685 249.352 231.402L249.37 210.507L249.434 138.636C249.434 135.201 249.68 130.66 248.474 127.407C246.891 123.137 227.256 104.634 222.593 99.9705C207.103 85.3502 191.74 70.5958 176.506 55.7087L157.538 37.3941C153.772 33.7676 150.03 29.9637 146.095 26.5185C142.216 23.1229 139.904 21.7143 135.635 25.7C130.018 30.9441 124.53 36.38 118.974 41.7177L75.3501 84.0583C65.8719 93.1137 56.4449 102.222 47.0695 111.384C43.9223 114.43 32.4819 124.055 32.0944 127.962C31.4542 134.416 31.6986 143.239 31.7041 149.881L31.7233 188.282L31.7059 223.456C31.6783 235.451 28.531 256.108 45.1156 257.648C51.7049 258.26 58.6128 258.135 65.2372 258.142L95.3755 258.154C98.8132 258.147 107.446 257.315 109.949 259.506C115.15 263.903 114.427 275.43 107.973 278.277C105.613 279.319 97.8854 279.001 95.1997 278.983L81.8722 278.962L59.3034 278.977C45.6232 279.005 35.9486 280.242 24.7624 271.184C17.2816 265.127 12.5357 256.329 11.5829 246.751C10.9006 240.084 11.2404 227.733 11.2442 220.629L11.2462 174.318L11.2509 141.248C11.2523 136.265 11.1689 131.175 11.3637 126.202C11.8695 113.291 23.9362 104.874 32.4502 96.7797L59.7599 70.4489L105.988 25.8345C109.248 22.6979 112.707 19.4983 115.9 16.3252C123.481 8.7929 126.975 3.24139 138.301 2.10179Z"/><path fill="#000000" d="M137.567 98.6337C148.19 97.2186 157.945 104.691 159.345 115.316C160.745 125.941 153.259 135.686 142.632 137.071C132.027 138.454 122.305 130.985 120.908 120.381C119.51 109.778 126.965 100.046 137.567 98.6337Z"/></svg>